<svg id="Capa_1" enable-background="new 0 0 512 512" height="512" viewBox="0 0 512 512" width="512"
     xmlns="http://www.w3.org/2000/svg">
    <defs>
        <style>.a{fill:#409eff;}</style>
    </defs>
    <path class="a"
          d="m437.02 74.981c-48.353-48.352-112.64-74.981-181.02-74.981s-132.667 26.629-181.02 74.981c-48.351 48.352-74.98 112.639-74.98 181.019s26.629 132.667 74.98 181.02c48.353 48.351 112.64 74.98 181.02 74.98s132.667-26.629 181.02-74.98c48.351-48.353 74.98-112.64 74.98-181.02s-26.629-132.667-74.98-181.019zm-21.214 340.825c-42.686 42.686-99.439 66.194-159.806 66.194s-117.12-23.508-159.806-66.194-66.194-99.439-66.194-159.806 23.508-117.12 66.194-159.806 99.439-66.194 159.806-66.194 117.12 23.508 159.806 66.194 66.194 99.439 66.194 159.806-23.508 117.12-66.194 159.806z"/>
    <path class="a"
          d="m370.158 346.317-34.847-78.559-45.577.08c-12.645-20.558-33.677-35.41-58.291-39.796v-32.043c6.552 3.025 13.837 4.726 21.515 4.726 28.405 0 51.515-23.109 51.515-51.515 0-28.405-23.109-51.514-51.515-51.514-28.405 0-51.515 23.109-51.515 51.514 0 .078.006.156.006.234h-.006v78.546c-10.23 1.786-19.842 5.378-28.5 10.442v-56.632h-50.657v30h20.657v55.911c-8.11 13.134-12.804 28.592-12.804 45.13 0 47.508 38.65 86.159 86.158 86.159 47.509 0 86.159-38.651 86.159-86.159 0-5.126-.476-10.14-1.338-15.023l14.697-.026 39.138 88.233 40.903-18.361-12.285-27.369zm-117.2-218.621c11.863 0 21.515 9.651 21.515 21.514s-9.651 21.515-21.515 21.515-21.515-9.651-21.515-21.515c0-11.863 9.652-21.514 21.515-21.514zm-36.66 241.304c-30.966 0-56.158-25.193-56.158-56.159s25.192-56.159 56.158-56.159 56.159 25.193 56.159 56.159-25.193 56.159-56.159 56.159z"/>
</svg>
