<?xml version="1.0" encoding="utf-8"?>
<!-- Generator: Adobe Illustrator 22.0.1, SVG Export Plug-In . SVG Version: 6.00 Build 0)  -->
<svg version="1.1" id="Layer_1" xmlns="http://www.w3.org/2000/svg" xmlns:xlink="http://www.w3.org/1999/xlink" x="0px" y="0px"
	 viewBox="0 0 173.3 298.4" style="enable-background:new 0 0 173.3 298.4;" xml:space="preserve">
<style type="text/css">
	.st0{fill:#585858;}
	.st1{fill:#2797FF;}
</style>
<title>Asset 9</title>
<path class="st0" d="M87,0c10.5,7.2,20.9,14.5,31.4,21.7c17.5,12,35.1,24,52.7,36c1.5,0.8,2.4,2.5,2.3,4.2
	c-0.1,87.9-0.1,165.8-0.1,233.8v2.7H0.2c-0.1-0.8-0.2-1.6-0.2-2.4c0-64.2,0-142.3-0.1-234.4c0-2,0.9-2.9,2.3-3.9
	C29.5,39.1,56.7,20.5,83.8,1.9c0.9-0.6,1.7-1.3,2.5-1.9H87z M160.4,209.2c0-0.8,0.1-1.3,0.1-1.9c0-44,0-96.2,0.1-140.2
	c0.1-1.4-0.7-2.8-2-3.5c-21.7-14.8-48-33.6-69.6-48.5c-1.8-1.2-2.9-1.1-4.6,0.1C62.8,30,36,48.8,14.4,63.5c-1.5,0.9-2.3,2.6-2.1,4.3
	c0,43.4,0,95,0,138.5v3L160.4,209.2z M160.3,257.4H12.5V285h147.8L160.3,257.4z M160.3,222.4H12.5v22.4h147.7L160.3,222.4z"/>
<g>
	<g id="Layer_5_90_">
		<g>
			<path class="st1" d="M82.3,122.7c3.1-3.3,4.8-7.8,4.8-12.6c0-9.1-6.5-18.3-18.9-18.3c-5.8,0-10.7,2-14.1,5.7
				c-3.1,3.3-4.7,7.8-4.7,12.6c0,9.1,6.5,18.3,18.9,18.3C73.9,128.5,78.9,126.5,82.3,122.7z"/>
			<path class="st1" d="M113.4,98.9c-1.1,0-2.7,0.7-3.4,1.6L54,162.6c-0.8,0.8-0.2,2,0.9,2h7.3c1.1,0,2.7-0.7,3.4-1.5l55.6-62.2
				c0.8-0.8,0.7-2.2-1.2-2.2L113.4,98.9z"/>
			<path class="st1" d="M107.3,135.5c-5.7,0-10.5,2-13.8,5.6c-3,3.3-4.6,7.6-4.6,12.3c0,8.9,6.4,18,18.5,18c5.7,0,10.5-1.9,13.9-5.6
				c3-3.3,4.7-7.7,4.7-12.3C125.8,144.5,119.5,135.5,107.3,135.5z"/>
		</g>
	</g>
</g>
</svg>
