<svg xmlns="http://www.w3.org/2000/svg" viewBox="0 0 162.99 176.28"><defs><style>.a{fill:red;}</style></defs><title>non-smoking</title><path class="a" d="M153.58,147.27a65,65,0,0,0,11.48-23.05,66.37,66.37,0,0,0-2.37-42.76,4,4,0,0,1,0-3.35,53.83,53.83,0,0,0,4.67-17.38,78.53,78.53,0,0,1,14.09,45.42,80,80,0,0,1-13.83,45.6c-24.06,35.92-71.72,46.61-109.34,24.57C22,155,8,107.77,27,70.18,47,30.37,90.75,17.6,123.93,28.5a64.19,64.19,0,0,0-2.18,6.63,63.61,63.61,0,0,0-.75,6.93C98.63,35.56,77.87,39,58.7,52.91c.53.57.93,1,1.37,1.47q21.17,21.2,42.33,42.39a4,4,0,0,0,3.08,1.28c6.59-.06,13.19,0,19.79,0h2.35v16.55h-6.81Zm-11.85,11.94L47.16,64.62C27.5,88.51,26.47,127.27,51.7,153.28,76.46,178.8,115.85,180.11,141.73,159.21Z" transform="translate(-18.51 -11.47)"/><path class="a" d="M151.48,12A26.37,26.37,0,0,0,146,24.83a19.59,19.59,0,0,0,5.5,16.73c7.51,7.54,8.17,16.32,5.72,25.85C155,76,151,83.76,146.14,91.12a7.89,7.89,0,0,1-.65.72c-1.68-3.47-3.35-6.75-4.88-10.09a171.23,171.23,0,0,1-10.33-28.66c-3.52-13.64.76-24.55,10.82-33.64,3.15-2.85,6.65-5.33,10-8Z" transform="translate(-18.51 -11.47)"/><path class="a" d="M143.36,114.57H132.84V98.14h10.52Z" transform="translate(-18.51 -11.47)"/><path class="a" d="M89.62,114.55H56.67V98.05H60.1c4,0,8,0,12,0a3,3,0,0,1,1.86.66c5.13,5,10.2,10.12,15.28,15.2A4.3,4.3,0,0,1,89.62,114.55Z" transform="translate(-18.51 -11.47)"/></svg>
