<?xml version="1.0" encoding="utf-8"?>
<!-- Generator: Adobe Illustrator 22.0.1, SVG Export Plug-In . SVG Version: 6.00 Build 0)  -->
<svg version="1.1" id="Layer_1" xmlns="http://www.w3.org/2000/svg" xmlns:xlink="http://www.w3.org/1999/xlink" x="0px" y="0px"
	 viewBox="0 0 204.2 212.5" style="enable-background:new 0 0 204.2 212.5;" xml:space="preserve">
<style type="text/css">
	.st0{fill:#2797FF;}
	.st1{fill:#585858;}
	.st2{font-family:'Palanquin-Bold';}
	.st3{font-size:60.87px;}
</style>
<title>Asset 18</title>
<path class="st0" d="M167,0c-13.3-0.1-25.6,7-32.3,18.5c2.6,0.9,5.1,2,7.5,3.1c8.6-13.7,26.6-17.8,40.3-9.2s17.8,26.6,9.2,40.3
	c-1.7,2.8-3.9,5.2-6.4,7.2c1.4,2.3,2.8,4.7,4,7.2c9.4-7.1,15-18.1,15-29.9c0.1-20.4-16.4-37.1-36.8-37.2C167.3,0,167.1,0,167,0z
	 M166.9,66.4c-16.1,0-29.2-13.2-29.2-29.3c0,0,0-0.1,0-0.1c0-2.3,0.3-4.6,0.9-6.9c-2.4-1.1-4.9-2.2-7.5-3.1c-1,3.4-1.5,7-1.4,10.5
	c0.1,20.6,16.9,37.2,37.5,37.1c4.9,0,9.7-1,14.2-2.9c-1.2-2.5-2.6-4.8-4-7.2C174,65.9,170.4,66.5,166.9,66.4L166.9,66.4z"/>
<path class="st1" d="M189.3,67.1c-2.5,1.9-5.2,3.4-8,4.6c22.4,44.8,4.3,99.3-40.5,121.8S41.4,197.7,19,152.9S14.7,53.6,59.6,31.1
	C81.8,20,107.7,18.5,131.1,27c0.8-3,2-5.8,3.6-8.5c-10.9-4-22.5-6.1-34.1-6.2C45.3,12.1,0.2,56.7,0,111.9s44.3,100.4,99.3,100.6
	c55.3,0.4,100.4-44,100.8-99.3c0-0.2,0-0.5,0-0.7C200.2,96.7,196.5,81.2,189.3,67.1z"/>
<path class="st0" d="M189.3,67.1c-2.5,1.9-5.2,3.4-8,4.6c-1.2-2.5-2.6-4.8-4-7.2c2.9-1.1,5.6-2.6,8-4.6
	C186.7,62.3,188.1,64.7,189.3,67.1z"/>
<path class="st0" d="M142.2,21.7c-1.7,2.6-2.9,5.4-3.6,8.4c-2.4-1.1-4.9-2.2-7.5-3.1c0.8-3,2-5.8,3.6-8.5
	C137.3,19.5,139.8,20.5,142.2,21.7z"/>
<text transform="matrix(1 0 0 1 151.5 52.74)" class="st0 st2 st3">#</text>
<g>
	<g>
		<g>
			<path class="st1" d="M144,93.9H87.4c-2.8,0-7.4,1-7.4,8.2V113h71.4v-10.9C151.4,95,146.8,93.9,144,93.9z"/>
		</g>
	</g>
	<g>
		<g>
			<polygon class="st1" points="64.6,115.3 53.8,115.3 53.8,77.3 46.7,77.3 46.7,151.1 53.8,151.1 53.8,132 149,132 149,151 
				156.2,151 156.2,115.3 			"/>
		</g>
	</g>
	<g>
		<g>
			<circle class="st1" cx="65.7" cy="103.4" r="10"/>
		</g>
	</g>
	<g>
	</g>
	<g>
	</g>
	<g>
	</g>
	<g>
	</g>
	<g>
	</g>
	<g>
	</g>
	<g>
	</g>
	<g>
	</g>
	<g>
	</g>
	<g>
	</g>
	<g>
	</g>
	<g>
	</g>
	<g>
	</g>
	<g>
	</g>
	<g>
	</g>
</g>
</svg>
