<svg xmlns="http://www.w3.org/2000/svg" viewBox="0 0 159.1 171.62">
    <defs>
        <style>.a{fill:red;}</style>
    </defs>
    <title>smoking_icn</title>
    <path class="a"
          d="M166.49,64c19.68,27.92,19.59,71.14-9.26,100.48C129.48,192.67,83.83,196,52.81,172c-32.65-25.28-41.32-69.77-20.13-104.6C54.5,31.5,95.27,23,124.21,32.62a26.26,26.26,0,0,0-2.85,13.23c-2.27-.58-4.36-1.15-6.47-1.64-35.86-8.3-72.5,16-78.84,52.28-6,34.44,14.5,66.68,48.14,75.65,35.34,9.42,72.37-12.88,80.56-48.5a65.81,65.81,0,0,0-3-39.73,3.89,3.89,0,0,1-.07-2.43c.94-2.91,2.21-5.73,3-8.67S165.92,67,166.49,64Z"
          transform="translate(-21.13 -16.38)"/>
    <path class="a"
          d="M144.79,94.16c-3.2-7.35-6.52-14.65-9.57-22.07a95.27,95.27,0,0,1-5.62-19.64c-1.6-8.94.77-16.7,6.41-23.64a50.94,50.94,0,0,1,14.85-12.43c-.28.45-.55.91-.85,1.35-6.61,9.5-6,20.17,1.9,28.56,5.42,5.75,6.74,12.48,5.53,19.94-1.67,10.25-6.37,19.23-11.94,27.8Z"
          transform="translate(-21.13 -16.38)"/>
    <path class="a" d="M58.41,116.41V100.52h69.31v15.89Z" transform="translate(-21.13 -16.38)"/>
    <path class="a" d="M143.09,100.49v15.93H132.82V100.49Z" transform="translate(-21.13 -16.38)"/>
</svg>
