<?xml version="1.0" encoding="iso-8859-1"?>
<!-- Generator: Adobe Illustrator 21.0.0, SVG Export Plug-In . SVG Version: 6.00 Build 0)  -->
<svg version="1.1" id="Capa_1" xmlns="http://www.w3.org/2000/svg" xmlns:xlink="http://www.w3.org/1999/xlink" x="0px" y="0px"
	 viewBox="0 0 511.999 511.999" style="enable-background:new 0 0 511.999 511.999;" xml:space="preserve">
<path style="fill:#EDEBED;" d="M480.452,436.363H31.548c-13.282,0-24.048-10.767-24.048-24.048V155.798
	c0-13.282,10.767-24.048,24.048-24.048h448.903c13.282,0,24.048,10.767,24.048,24.048v256.516
	C504.5,425.596,493.733,436.363,480.452,436.363z"/>
<path style="fill:#9C969E;" d="M320.129,115.718h-32.065v-8.016c0-17.709-14.356-32.065-32.065-32.065s-32.065,14.356-32.065,32.065
	v8.016h-32.065c-4.427,0-8.016,3.589-8.016,8.016v24.048c0,4.427,3.589,8.016,8.016,8.016h128.258c4.427,0,8.016-3.589,8.016-8.016
	v-24.048C328.145,119.307,324.556,115.718,320.129,115.718z"/>
<path style="fill:#FFE17D;" d="M440.371,251.992H264.016c-4.427,0-8.016-3.589-8.016-8.016v-16.032c0-4.427,3.589-8.016,8.016-8.016
	h176.355c4.427,0,8.016,3.589,8.016,8.016v16.032C448.387,248.403,444.798,251.992,440.371,251.992z"/>
<path style="fill:#FFD164;" d="M167.823,267.855v31.146c0,3.278,1.996,6.225,5.039,7.443l24.964,9.985
	c6.087,2.435,10.078,8.33,10.078,14.886v24.717c0,4.427-3.589,8.016-8.016,8.016H87.661c-4.427,0-8.016-3.589-8.016-8.016v-24.717
	c0-6.556,3.991-12.451,10.078-14.886l24.964-9.985c3.043-1.217,5.039-4.165,5.039-7.443v-31.146H167.823z"/>
<path style="fill:#FFC350;" d="M119.726,267.855v31.147c0,3.278-1.996,6.225-5.039,7.443l-1.277,0.511
	c8.763,5.668,19.174,8.996,30.365,8.996c11.19,0,21.602-3.328,30.365-8.996l-1.277-0.511c-3.043-1.217-5.039-4.165-5.039-7.443
	v-31.147H119.726z"/>
<path style="fill:#FFE17D;" d="M175.839,235.791c0-13.282-14.356-24.048-32.065-24.048s-32.065,10.767-32.065,24.048v24.048
	c0,17.709,14.356,32.064,32.064,32.064l0,0c17.709,0,32.064-14.356,32.064-32.064v-24.048H175.839z"/>
<path style="fill:#FFC350;" d="M79.645,340.169v15.864c0,4.427,3.589,8.016,8.016,8.016h112.226c4.427,0,8.016-3.589,8.016-8.016
	v-15.864H79.645z"/>
<path style="fill:#AEA8AF;" d="M320.129,115.718h-32.065v-8.016c0-17.709-14.356-32.065-32.065-32.065s-32.065,14.356-32.065,32.065
	v8.016h-32.065c-4.427,0-8.016,3.589-8.016,8.016v8.016h144.29v-8.016C328.145,119.307,324.556,115.718,320.129,115.718z"/>
<path style="fill:#DBD9DC;" d="M31.548,324.137V131.75c-13.282,0-24.048,10.767-24.048,24.048v256.516
	c0,13.282,10.767,24.048,24.048,24.048h448.903c13.282,0,24.048-10.767,24.048-24.048H119.726
	C71.026,412.315,31.548,372.836,31.548,324.137z"/>
<path d="M183.339,260.008v-24.049c0-17.396-17.749-31.548-39.564-31.548c-21.816,0-39.565,14.152-39.565,31.548v24.049
	c0,8.947,2.989,17.207,8.016,23.842v15.32c0,0.212-0.127,0.4-0.324,0.479l-24.964,9.985c-8.986,3.595-14.792,12.171-14.792,21.849
	V356.2c0,8.556,6.96,15.516,15.516,15.516h64.128c4.142,0,7.5-3.358,7.5-7.5s-3.358-7.5-7.5-7.5H87.661
	c-0.285,0-0.516-0.231-0.516-0.516v-24.717c0-3.509,2.105-6.619,5.363-7.922l24.964-9.985c5.925-2.37,9.753-8.025,9.753-14.406
	v-3.238c5.039,2.331,10.642,3.641,16.549,3.641c5.906,0,11.51-1.31,16.548-3.641v3.238c0,6.382,3.829,12.037,9.753,14.406
	l24.963,9.985c3.258,1.304,5.364,4.413,5.364,7.922V356.2c0,0.285-0.231,0.516-0.516,0.516h-16.035c-4.142,0-7.5,3.358-7.5,7.5
	s3.358,7.5,7.5,7.5h16.035c8.556,0,15.516-6.96,15.516-15.516v-24.717c0-9.678-5.806-18.254-14.792-21.849l-24.964-9.986
	c-0.197-0.079-0.324-0.267-0.324-0.479v-15.32C180.35,277.216,183.339,268.956,183.339,260.008z M143.774,284.573
	c-13.545,0-24.564-11.02-24.564-24.564V235.96c0-8.97,11.25-16.548,24.565-16.548s24.564,7.578,24.564,16.548v24.049
	C168.339,273.553,157.319,284.573,143.774,284.573z"/>
<path d="M480.452,124.25H335.645v-0.516c0-8.556-6.96-15.516-15.516-15.516h-24.564v-0.516c0-21.816-17.749-39.564-39.564-39.564
	s-39.564,17.749-39.564,39.564v0.516h-24.564c-8.556,0-15.516,6.96-15.516,15.516v24.048c0,8.556,6.96,15.516,15.516,15.516h128.258
	c8.556,0,15.516-6.96,15.516-15.516v-8.532h144.807c9.125,0,16.548,7.423,16.548,16.548v256.516c0,9.125-7.423,16.548-16.548,16.548
	H31.548c-9.125,0-16.548-7.423-16.548-16.548V155.798c0-9.125,7.423-16.548,16.548-16.548H151.79c4.142,0,7.5-3.358,7.5-7.5
	s-3.358-7.5-7.5-7.5H31.548C14.152,124.25,0,138.402,0,155.798v256.516c0,17.396,14.152,31.548,31.548,31.548h448.903
	c17.396,0,31.548-14.152,31.548-31.548V155.798C512,138.402,497.848,124.25,480.452,124.25z M320.645,147.782
	c0,0.285-0.231,0.516-0.516,0.516H191.871c-0.285,0-0.516-0.231-0.516-0.516v-24.048c0-0.285,0.231-0.516,0.516-0.516h32.064
	c4.142,0,7.5-3.358,7.5-7.5v-8.016c0-13.545,11.02-24.564,24.564-24.564c13.544,0,24.564,11.02,24.564,24.564v8.016
	c0,4.142,3.358,7.5,7.5,7.5h32.064c0.285,0,0.516,0.231,0.516,0.516v24.048H320.645z"/>
<path d="M256.155,100.202c-4.141-0.075-7.533,3.283-7.574,7.425l-0.08,8.016c-0.042,4.142,3.283,7.533,7.425,7.574
	c0.025,0,0.051,0,0.076,0c4.107,0,7.457-3.309,7.498-7.425l0.08-8.016C263.621,103.635,260.297,100.243,256.155,100.202z"/>
<path d="M455.887,243.976v-16.032c0-8.556-6.96-15.516-15.516-15.516H264.016c-8.556,0-15.516,6.96-15.516,15.516v16.032
	c0,8.556,6.96,15.516,15.516,15.516h176.355C448.927,259.492,455.887,252.531,455.887,243.976z M263.5,243.976v-16.032
	c0-0.285,0.231-0.516,0.516-0.516h176.355c0.285,0,0.516,0.231,0.516,0.516v16.032c0,0.285-0.231,0.516-0.516,0.516H264.016
	C263.731,244.492,263.5,244.26,263.5,243.976z"/>
<path d="M415.807,284.057c0-4.142-3.358-7.5-7.5-7.5H264.016c-4.142,0-7.5,3.358-7.5,7.5s3.358,7.5,7.5,7.5h144.291
	C412.449,291.557,415.807,288.199,415.807,284.057z"/>
<path d="M280.048,316.637h-16.032c-4.142,0-7.5,3.358-7.5,7.5s3.358,7.5,7.5,7.5h16.032c4.142,0,7.5-3.358,7.5-7.5
	S284.19,316.637,280.048,316.637z"/>
<path d="M384.258,316.637h-72.146c-4.142,0-7.5,3.358-7.5,7.5s3.358,7.5,7.5,7.5h72.146c4.142,0,7.5-3.358,7.5-7.5
	S388.4,316.637,384.258,316.637z"/>
<path d="M384.258,348.702h-72.146c-4.142,0-7.5,3.358-7.5,7.5s3.358,7.5,7.5,7.5h72.146c4.142,0,7.5-3.358,7.5-7.5
	S388.4,348.702,384.258,348.702z"/>
<path d="M280.048,348.702h-16.032c-4.142,0-7.5,3.358-7.5,7.5s3.358,7.5,7.5,7.5h16.032c4.142,0,7.5-3.358,7.5-7.5
	S284.19,348.702,280.048,348.702z"/>
<g>
</g>
<g>
</g>
<g>
</g>
<g>
</g>
<g>
</g>
<g>
</g>
<g>
</g>
<g>
</g>
<g>
</g>
<g>
</g>
<g>
</g>
<g>
</g>
<g>
</g>
<g>
</g>
<g>
</g>
</svg>
